<?xml version="1.0" standalone="no"?>
<!DOCTYPE svg PUBLIC "-//W3C//DTD SVG 20010904//EN"
 "http://www.w3.org/TR/2001/REC-SVG-20010904/DTD/svg10.dtd">
<svg version="1.0" xmlns="http://www.w3.org/2000/svg"
 width="326.000000pt" height="299.000000pt" viewBox="0 0 326.000000 299.000000"
 preserveAspectRatio="xMidYMid meet">

<g transform="translate(0.000000,299.000000) scale(0.100000,-0.100000)"
fill="#000000" stroke="none">
<path d="M1523 2686 c-86 -20 -156 -60 -213 -123 -59 -64 -88 -136 -103 -254
-13 -102 5 -217 47 -304 29 -58 95 -128 138 -148 16 -6 31 -22 35 -35 3 -13 4
-96 1 -186 -5 -188 -17 -227 -80 -261 -51 -27 -48 -39 8 -31 26 3 69 6 95 6
l49 0 0 231 0 230 28 -3 27 -3 3 -226 2 -227 98 -4 c53 -3 99 -3 101 -2 2 2
-11 10 -30 18 -76 32 -99 86 -99 239 l0 114 94 -5 c114 -6 174 11 230 66 56
54 76 103 76 192 0 114 -43 196 -125 237 -59 30 -107 35 -232 28 l-113 -7 0
-179 0 -179 -30 0 -30 0 0 180 0 180 -42 0 c-24 0 -67 3 -95 6 -37 5 -53 3
-53 -5 0 -6 6 -11 14 -11 23 0 68 -42 83 -78 16 -38 29 -191 19 -218 -6 -15
-12 -11 -46 24 -67 72 -93 141 -98 261 -10 212 49 331 198 400 73 33 200 35
271 4 58 -26 113 -91 135 -157 9 -28 20 -55 24 -59 6 -7 22 243 15 250 -1 2
-37 12 -81 23 -105 27 -241 34 -321 16z m314 -517 c46 -17 92 -69 108 -123 19
-63 19 -91 0 -148 -36 -105 -152 -153 -280 -116 l-40 11 81 12 c104 16 193 44
204 65 12 22 25 120 16 120 -4 0 -19 -12 -34 -26 -42 -40 -102 -72 -167 -88
-104 -28 -97 -37 -93 125 3 134 4 142 27 160 27 22 129 27 178 8z"/>
<path d="M1165 2509 c-20 -23 -49 -67 -63 -98 -23 -49 -26 -70 -26 -166 -1
-142 23 -212 102 -293 29 -30 56 -52 59 -48 3 3 -1 14 -10 24 -43 48 -87 208
-87 315 1 82 26 200 54 256 14 28 21 51 17 51 -5 0 -25 -19 -46 -41z"/>
<path d="M2029 2164 c77 -98 80 -283 6 -379 -14 -19 -23 -35 -20 -35 18 0 66
34 98 69 92 102 69 281 -47 352 -45 28 -62 25 -37 -7z"/>
<path d="M1810 1620 c-11 -11 -20 -31 -20 -45 0 -28 21 -44 92 -70 55 -20 68
-33 78 -78 l7 -32 8 28 c11 40 -19 76 -84 102 -28 12 -59 29 -69 39 -16 16
-16 18 8 38 31 25 87 19 113 -14 l19 -22 -4 34 -3 35 -62 3 c-52 2 -66 -1 -83
-18z"/>
<path d="M1760 1552 c0 -32 25 -54 85 -77 66 -24 86 -45 69 -72 -30 -47 -83
-40 -121 16 l-23 34 0 -41 c0 -48 4 -51 67 -58 59 -7 103 20 103 65 0 36 -21
54 -93 81 -41 15 -61 29 -67 46 -11 28 -20 31 -20 6z"/>
<path d="M337 1272 c-23 -25 -22 -85 1 -105 24 -22 56 -22 73 0 13 15 12 15
-9 2 -34 -21 -56 -2 -60 54 l-3 45 35 -2 c21 -1 38 4 41 11 7 21 -59 16 -78
-5z"/>
<path d="M490 1280 c0 -6 7 -22 16 -35 23 -35 8 -52 -22 -24 -13 12 -24 17
-24 11 0 -14 40 -37 58 -34 12 3 16 -9 13 -35 -1 -8 9 -13 25 -13 24 0 26 2
12 13 -19 14 -36 63 -19 53 7 -5 9 -1 5 8 -3 9 -10 13 -15 10 -5 -3 -12 8 -15
25 -6 28 -34 45 -34 21z"/>
<path d="M608 1258 c-2 -18 -1 -50 1 -70 2 -31 7 -38 24 -38 16 0 18 3 9 12
-7 7 -12 22 -12 34 0 17 7 23 26 26 62 7 52 68 -12 68 -30 0 -33 -3 -36 -32z
m67 -3 c0 -13 -8 -21 -22 -23 -16 -2 -23 2 -23 12 0 10 9 16 23 17 21 1 21 1
-3 10 l-25 8 25 -2 c18 -1 25 -8 25 -22z"/>
<path d="M710 1281 c0 -5 7 -12 16 -15 24 -9 31 -7 14 5 -13 9 -13 10 0 6 11
-3 15 -19 15 -65 0 -59 1 -62 24 -62 22 0 23 2 9 13 -11 8 -15 27 -14 62 1 45
3 50 24 49 12 0 22 3 22 8 0 4 -25 8 -55 8 -30 0 -55 -4 -55 -9z"/>
<path d="M846 1223 l0 -68 58 -3 c50 -3 57 -1 44 11 -8 9 -26 12 -46 9 -29 -4
-32 -2 -32 20 0 21 4 25 25 20 18 -3 25 0 25 10 0 11 -7 14 -25 10 -22 -4 -25
-1 -25 23 0 25 3 27 30 23 17 -3 33 -1 36 4 3 4 -16 8 -43 8 l-48 0 1 -67z"/>
<path d="M987 1272 c-23 -25 -22 -85 1 -105 24 -22 56 -22 73 0 13 15 12 15
-9 2 -34 -21 -56 -2 -60 54 l-3 45 35 -2 c21 -1 38 4 41 11 7 21 -59 16 -78
-5z"/>
<path d="M1095 1220 c0 -68 1 -70 25 -70 19 0 21 3 12 12 -7 7 -12 23 -12 36
0 18 4 23 16 18 9 -3 20 -6 26 -6 6 0 8 -12 5 -30 -6 -26 -3 -30 14 -30 16 0
19 3 11 13 -6 6 -10 38 -9 70 1 35 -2 57 -9 57 -6 0 -9 -13 -6 -30 4 -27 2
-30 -23 -30 -25 0 -27 3 -23 30 3 23 1 30 -11 30 -13 0 -16 -13 -16 -70z"/>
<path d="M1336 1277 c3 -10 9 -15 12 -12 3 3 0 11 -7 18 -10 9 -11 8 -5 -6z"/>
<path d="M1576 1277 c3 -10 9 -15 12 -12 3 3 0 11 -7 18 -10 9 -11 8 -5 -6z"/>
<path d="M1952 1260 c0 -14 2 -19 5 -12 2 6 2 18 0 25 -3 6 -5 1 -5 -13z"/>
<path d="M1473 1230 c0 -25 2 -35 4 -22 2 12 2 32 0 45 -2 12 -4 2 -4 -23z"/>
<path d="M1695 1239 c-4 -6 -5 -12 -2 -15 2 -3 7 2 10 11 7 17 1 20 -8 4z"/>
<path d="M1336 1217 c3 -10 9 -15 12 -12 3 3 0 11 -7 18 -10 9 -11 8 -5 -6z"/>
<path d="M2250 1211 c0 -6 4 -13 10 -16 6 -3 7 1 4 9 -7 18 -14 21 -14 7z"/>
<path d="M453 1180 c-18 -28 -17 -30 15 -30 15 0 22 4 16 8 -7 4 -13 15 -15
25 -4 16 -5 16 -16 -3z"/>
<path d="M2390 1176 c0 -3 9 -10 20 -16 11 -6 20 -8 20 -6 0 3 -9 10 -20 16
-11 6 -20 8 -20 6z"/>
<path d="M1710 1166 c0 -2 7 -7 16 -10 8 -3 12 -2 9 4 -6 10 -25 14 -25 6z"/>
<path d="M876 733 l1 -68 82 -3 c71 -2 81 -1 69 11 -10 11 -17 12 -32 3 -14
-8 -20 -8 -23 1 -3 7 -17 10 -39 6 -31 -5 -34 -4 -34 19 0 21 4 25 25 20 18
-3 25 0 25 10 0 11 -7 14 -25 10 -22 -4 -25 -1 -25 23 0 25 3 27 30 23 17 -3
33 -1 36 4 3 4 -16 8 -43 8 l-48 0 1 -67z"/>
<path d="M1006 785 c4 -8 9 -15 13 -15 4 0 20 -25 36 -55 17 -30 33 -55 37
-55 4 0 4 8 0 18 -43 96 -59 122 -74 122 -11 0 -15 -5 -12 -15z"/>
<path d="M1120 791 c0 -5 7 -12 16 -15 24 -9 31 -7 14 4 -13 8 -12 10 4 10 16
0 18 -7 14 -65 -4 -64 -4 -65 22 -65 22 1 23 2 8 11 -14 8 -18 23 -18 66 0 54
1 55 25 51 14 -3 25 -1 25 3 0 5 -25 9 -55 9 -30 0 -55 -4 -55 -9z"/>
<path d="M1256 733 l0 -68 58 -3 c50 -3 57 -1 44 11 -8 9 -26 12 -46 9 -29 -4
-32 -2 -32 20 0 21 4 25 25 20 18 -3 25 0 25 10 0 11 -7 14 -25 10 -22 -4 -25
-1 -25 23 0 25 3 27 30 23 17 -3 33 -1 36 4 3 4 -16 8 -43 8 l-48 0 1 -67z"/>
<path d="M1395 788 c-3 -7 -6 -39 -8 -70 -4 -57 -3 -58 21 -58 20 0 23 3 14
12 -7 7 -12 35 -12 64 0 49 1 51 25 46 27 -5 34 -29 11 -38 -12 -4 -11 -11 2
-45 8 -21 19 -39 24 -39 12 0 10 8 -9 42 -17 28 -17 30 0 39 9 6 17 16 17 24
0 29 -76 49 -85 23z"/>
<path d="M1518 768 c-2 -18 -1 -50 1 -70 2 -31 7 -38 24 -38 16 0 18 3 9 12
-7 7 -12 22 -12 35 0 17 6 23 23 23 13 0 31 8 41 18 15 18 15 20 -2 35 -10 10
-33 17 -50 17 -27 0 -31 -3 -34 -32z m67 -3 c0 -13 -8 -21 -22 -23 -19 -3 -23
1 -23 23 0 22 4 26 23 23 14 -2 22 -10 22 -23z"/>
<path d="M1558 773 c7 -3 16 -2 19 1 4 3 -2 6 -13 5 -11 0 -14 -3 -6 -6z"/>
<path d="M1645 788 c-3 -7 -6 -39 -8 -70 -4 -57 -3 -58 21 -58 20 0 23 3 14
12 -7 7 -12 35 -12 64 0 49 1 51 25 46 27 -5 34 -29 11 -38 -12 -4 -11 -11 2
-45 8 -21 19 -39 24 -39 12 0 10 8 -9 42 -17 28 -17 30 0 39 9 6 17 16 17 24
0 29 -76 49 -85 23z"/>
<path d="M1768 745 c2 -33 -1 -61 -8 -70 -10 -12 -1 -14 56 -14 75 0 104 11
104 38 0 22 -15 35 -54 48 -17 5 -31 14 -33 20 -6 16 35 27 51 14 10 -9 15 -8
20 4 4 12 -2 15 -28 15 -65 0 -74 -59 -10 -70 21 -4 29 -11 29 -25 0 -23 -38
-33 -59 -16 -10 9 -15 8 -20 -4 -13 -35 -26 -11 -26 50 0 45 -4 65 -12 65 -9
0 -12 -16 -10 -55z"/>
<path d="M1946 733 l1 -68 93 -2 c102 -2 128 5 126 38 -1 23 -13 32 -60 49
-28 10 -28 12 -13 28 14 13 21 14 36 5 15 -10 20 -9 25 2 4 11 -3 15 -28 15
-64 0 -74 -52 -14 -68 23 -6 33 -14 33 -28 0 -22 -41 -32 -58 -15 -7 7 -15 5
-24 -7 -10 -12 -16 -13 -19 -5 -3 7 -18 9 -40 6 -31 -5 -34 -4 -34 19 0 21 4
25 25 20 18 -3 25 0 25 10 0 11 -7 14 -25 10 -22 -4 -25 -1 -25 23 0 25 3 27
30 23 17 -3 33 -1 36 4 3 4 -16 8 -43 8 l-48 0 1 -67z"/>
</g>
</svg>
